<svg width="126" height="30" viewBox="0 0 126 30" fill="none" xmlns="http://www.w3.org/2000/svg">
<path d="M0.0652603 10.9274L3.98734 24.1507L14.3532 13.7868L14.282 13.769L13.837 12.2622L10.36 0.539846L0 10.9037L0.0652603 10.9215V10.9274Z" fill="#FB275D"/>
<path d="M16.2342 15.7208L16.2282 15.7149L16.2104 15.6496L5.85047 26.0075L19.0704 29.9288H19.0763L19.1001 30L29.46 19.6361L16.2342 15.7208Z" fill="#FFCC00"/>
<path d="M16.8453 13.158L18.2813 13.5792L30 17.0556L26.5289 5.3332L26.1017 3.89757L24.6657 3.47637L12.9411 0L16.8453 13.158Z" fill="#287DF9"/>
<path d="M49.1468 23.7912L45.4165 17.0759H44.369V23.7912H40V6.00207H47.3327C48.5784 5.96683 49.8154 6.21837 50.9466 6.73695C51.8798 7.16909 52.6595 7.87082 53.1836 8.75013C53.6813 9.61884 53.9371 10.6033 53.9245 11.6024C53.9386 12.7379 53.5854 13.848 52.9167 14.7699C52.1766 15.7437 51.1261 16.4403 49.936 16.7465L54.075 23.7856L49.1468 23.7912ZM44.369 14.0097H47.0772C47.8778 14.0097 48.4777 13.8154 48.8771 13.4269C49.0857 13.2078 49.2468 12.9486 49.3503 12.6652C49.4538 12.3819 49.4976 12.0805 49.4789 11.7797C49.4947 11.4869 49.4494 11.1939 49.3459 10.9192C49.2423 10.6446 49.0827 10.394 48.8771 10.1833C48.4777 9.79097 47.8778 9.59482 47.0772 9.59482H44.369V14.0097Z" fill="white"/>
<path d="M69.3821 17.7601H59.4944C59.5074 18.5147 59.8123 19.2354 60.346 19.7733C60.8478 20.2379 61.5135 20.4887 62.1998 20.4716C63.2899 20.4716 64.0469 20.0155 64.4708 19.1032H69.1266C68.8914 20.025 68.4499 20.8825 67.8349 21.6119C67.2013 22.3645 66.402 22.9627 65.4985 23.3604C64.5092 23.7936 63.4372 24.0097 62.3559 23.9939C61.057 24.0183 59.7732 23.714 58.6257 23.1098C57.545 22.5278 56.6575 21.6476 56.0707 20.5758C55.4363 19.3912 55.1196 18.0649 55.1509 16.724C55.1191 15.3847 55.4307 14.0594 56.0565 12.8722C56.6396 11.7976 57.528 10.9165 58.6115 10.3381C59.7672 9.73103 61.0597 9.4258 62.3673 9.45122C63.651 9.42554 64.9204 9.7219 66.0578 10.3128C67.1171 10.8751 67.9904 11.7286 68.573 12.7708C69.1976 13.9129 69.5108 15.197 69.4814 16.4959C69.4727 16.9189 69.4395 17.341 69.3821 17.7601ZM64.9818 15.3528C64.9964 15.019 64.9351 14.6863 64.8024 14.3792C64.6697 14.0722 64.4691 13.7987 64.2154 13.5789C63.681 13.1314 62.9981 12.8966 62.2991 12.9201C61.6221 12.8987 60.9606 13.1241 60.4397 13.5536C59.9154 14.0183 59.5836 14.6594 59.5085 15.3528H64.9818Z" fill="white"/>
<path d="M84.4819 17.7601H74.5942C74.6073 18.5147 74.9121 19.2354 75.4458 19.7733C75.9477 20.2379 76.6133 20.4887 77.2996 20.4716C78.3897 20.4716 79.1467 20.0155 79.5707 19.1032H84.2207C83.9855 20.025 83.544 20.8825 82.929 21.6119C82.2963 22.3641 81.498 22.9623 80.5955 23.3604C79.6062 23.7936 78.5342 24.0097 77.4529 23.9939C76.1549 24.0178 74.8722 23.7135 73.7255 23.1098C72.6448 22.5278 71.7574 21.6476 71.1705 20.5758C70.5362 19.3912 70.2194 18.0649 70.2507 16.724C70.219 15.3847 70.5306 14.0594 71.1563 12.8722C71.7394 11.7976 72.6278 10.9165 73.7113 10.3381C74.867 9.73103 76.1595 9.4258 77.4671 9.45122C78.7508 9.42554 80.0202 9.7219 81.1576 10.3128C82.2169 10.8751 83.0902 11.7286 83.6728 12.7708C84.293 13.9131 84.6022 15.1961 84.5699 16.4931C84.565 16.9168 84.5357 17.3398 84.4819 17.7601ZM80.0873 15.3528C80.1019 15.019 80.0406 14.6863 79.9079 14.3792C79.7752 14.0722 79.5746 13.7987 79.3209 13.5789C78.7865 13.1314 78.1036 12.8966 77.4046 12.9201C76.7295 12.9001 76.0703 13.1254 75.5509 13.5536C75.0318 14.0205 74.7052 14.6614 74.6339 15.3528H80.0873Z" fill="white"/>
<path d="M99.5817 16.2003C100.205 16.9829 100.539 17.9539 100.527 18.9511C100.527 20.4378 100.003 21.6157 98.9543 22.4848C97.9058 23.3538 96.4457 23.7893 94.574 23.7912H86.2193V6.00208H94.2929C96.1155 6.00208 97.5415 6.41597 98.5711 7.24377C99.0782 7.64704 99.4825 8.16303 99.7512 8.75C100.02 9.33696 100.146 9.97843 100.118 10.6225C100.153 11.5617 99.8591 12.4839 99.2865 13.2326C98.72 13.9276 97.9472 14.4281 97.0778 14.6629C98.0732 14.8563 98.9633 15.4029 99.5817 16.2003ZM90.5882 13.1988H93.4498C94.0371 13.2368 94.6194 13.0706 95.0963 12.7286C95.291 12.557 95.4434 12.3434 95.5419 12.1042C95.6403 11.865 95.6821 11.6067 95.6641 11.349C95.6818 11.0892 95.6398 10.8288 95.5415 10.5874C95.4432 10.346 95.291 10.1299 95.0963 9.95522C94.6227 9.60553 94.0389 9.43482 93.4498 9.47374H90.5882V13.1988ZM95.5051 19.7987C95.7094 19.622 95.8699 19.4011 95.9743 19.1531C96.0786 18.9051 96.124 18.6365 96.1069 18.3683C96.1209 18.0923 96.0717 17.8167 95.963 17.5621C95.8544 17.3076 95.6891 17.0808 95.4796 16.8986C94.9896 16.5192 94.3769 16.33 93.7564 16.3664H90.5882V20.2942H93.8075C94.4145 20.3322 95.0156 20.1567 95.5051 19.7987Z" fill="white"/>
<path d="M105.137 23.1098C104.035 22.531 103.122 21.6518 102.506 20.5758C101.847 19.399 101.517 18.0694 101.549 16.724C101.521 15.3808 101.856 14.0546 102.52 12.8835C103.144 11.8051 104.066 10.9259 105.177 10.3494C106.351 9.76622 107.646 9.46257 108.958 9.46257C110.271 9.46257 111.566 9.76622 112.74 10.3494C113.851 10.9259 114.773 11.8051 115.397 12.8835C116.059 14.054 116.394 15.3792 116.365 16.7212C116.393 18.0652 116.052 19.3916 115.38 20.5589C114.746 21.6384 113.815 22.5171 112.697 23.0929C111.526 23.6936 110.223 23.9982 108.904 23.9799C107.595 24.005 106.301 23.7059 105.137 23.1098ZM111.039 19.3341C111.626 18.7259 111.92 17.8559 111.922 16.724C111.924 15.5921 111.64 14.7221 111.071 14.1139C110.8 13.8264 110.473 13.5968 110.109 13.4395C109.746 13.2821 109.354 13.2002 108.957 13.1989C108.561 13.1976 108.168 13.2769 107.803 13.4318C107.439 13.5867 107.11 13.8141 106.838 14.0998C106.27 14.7005 105.986 15.5752 105.986 16.724C105.986 17.8728 106.262 18.7428 106.815 19.3341C107.074 19.628 107.395 19.862 107.755 20.0196C108.115 20.1772 108.505 20.2546 108.899 20.2463C109.301 20.2527 109.699 20.1745 110.068 20.0167C110.437 19.859 110.768 19.6253 111.039 19.3313V19.3341Z" fill="white"/>
<path d="M126 20.1168V23.7771H123.777C122.193 23.7771 120.958 23.3923 120.072 22.6227C119.187 21.8531 118.744 20.6077 118.744 18.8864V13.2551H117.007V9.65113H118.744V6.21606H123.113V9.65113H125.974V13.2551H123.113V18.9258C123.097 19.0907 123.116 19.257 123.169 19.4141C123.222 19.5712 123.307 19.7156 123.419 19.8381C123.714 20.0526 124.078 20.1527 124.441 20.1196L126 20.1168Z" fill="white"/>
</svg>
